<svg xmlns="http://www.w3.org/2000/svg" shape-rendering="geometricPrecision" text-rendering="geometricPrecision" image-rendering="optimizeQuality" fill-rule="evenodd" clip-rule="evenodd" viewBox="0 0 512 512.029"><g fill-rule="nonzero"><path fill="#6D6DAA" d="M334.179 9.156l168.666 168.665c6.102 6.104 9.155 14.138 9.155 22.161 0 8.024-3.053 16.058-9.155 22.162L460.3 264.687c-6.102 6.103-14.135 9.155-22.16 9.155-8.024 0-16.059-3.052-22.16-9.155l-24.938-24.937-263.15 263.15c-6.086 6.086-14.133 9.129-22.162 9.129-8.03 0-16.076-3.043-22.162-9.129L9.101 428.433C3.049 422.38.006 414.341 0 406.285c-.007-8.047 3.021-16.094 9.101-22.176l263.15-263.15-24.938-24.937c-6.102-6.103-9.155-14.138-9.155-22.161 0-8.025 3.054-16.058 9.155-22.161l42.545-42.544C295.96 3.053 303.994 0 312.018 0c8.025 0 16.059 3.053 22.161 9.156z"/><path fill="#F3F5FB" d="M135.869 465.007L29.261 393.864l-5.202 5.203a10.172 10.172 0 00-2.986 7.218c.001 2.596 1 5.205 2.986 7.19l74.466 74.468c1.954 1.953 4.572 2.931 7.205 2.931 2.632 0 5.251-.978 7.204-2.931l22.935-22.936zM487.887 192.78L319.222 24.113c-1.971-1.971-4.584-2.957-7.204-2.957-2.619 0-5.232.986-7.203 2.957l-42.543 42.544c-1.971 1.971-2.959 4.584-2.959 7.204 0 2.619.986 5.232 2.958 7.203L430.937 249.73c1.971 1.971 4.584 2.957 7.203 2.957 2.619 0 5.232-.986 7.204-2.957l42.543-42.544c1.971-1.971 2.957-4.584 2.957-7.204 0-2.619-.986-5.232-2.957-7.202zm-111.803 32.013l-88.875-88.876-80.105 80.104 106.609 71.143 62.371-62.371zm-184.183 6.431l-25.457 25.457 106.608 71.143 25.457-25.455-106.608-71.145zm-40.66 40.66l-25.457 25.456 106.608 71.144 25.456-25.456-106.607-71.144zm-40.66 40.66l-25.456 25.457 106.607 71.144 25.457-25.456-106.608-71.145zM44.464 378.66l106.608 71.144 25.456-25.456-106.607-71.144-25.457 25.456z"/><path fill="#F3F5FB" d="M135.87 465.008l-53.7-35.836-22.802 19.613 39.157 39.158c1.953 1.953 4.572 2.93 7.205 2.93 2.632 0 5.251-.977 7.205-2.93l22.935-22.935zm-37.103-50.109l27.788-23.901 49.974 33.351-25.458 25.456-52.304-34.906zm44.383-38.174l27.791-23.901 46.248 30.864-25.457 25.458-48.582-32.421zm44.386-38.174l27.788-23.901 42.525 28.379-25.457 25.456-44.856-29.934zm44.385-38.174l27.788-23.901 38.8 25.892-25.457 25.456-41.131-27.447zm44.383-38.174l73.755-63.436 26.025 26.026-62.372 62.372-37.408-24.962zm89.837-77.267l61.234-52.668 60.511 60.512c1.972 1.97 2.959 4.582 2.959 7.203 0 2.619-.987 5.231-2.959 7.203l-42.543 42.545c-1.971 1.971-4.584 2.956-7.204 2.956-2.617 0-5.23-.985-7.202-2.956l-64.796-64.795z"/><path fill="#CED8EE" d="M135.87 465.008l-50.584-33.757-24.299 19.153 37.538 37.539c1.953 1.953 4.572 2.93 7.205 2.93 2.632 0 5.251-.977 7.205-2.93l22.935-22.935zm-33.168-47.484l29.16-22.983 44.667 29.808-25.458 25.456-48.369-32.281zm46.575-36.71l29.161-22.985 38.751 25.859-25.457 25.458-42.455-28.332zm46.576-36.714l29.161-22.983 32.835 21.912-25.457 25.456-36.539-24.385zm46.576-36.71l29.161-22.985 26.919 17.963-25.457 25.456-30.623-20.434zm46.576-36.712l74.355-58.609 12.724 12.724-62.372 62.372-24.707-16.487zm91.084-71.796l63.694-50.205 44.103 44.103c1.972 1.97 2.959 4.582 2.959 7.203 0 2.619-.987 5.231-2.959 7.203l-42.543 42.545c-1.971 1.971-4.584 2.956-7.204 2.956-2.617 0-5.23-.985-7.202-2.956l-50.848-50.849z"/></g></svg>